<?xml version="1.0" encoding="utf-8"?>
<!-- Generator: Adobe Illustrator 15.1.0, SVG Export Plug-In . SVG Version: 6.00 Build 0)  -->
<!DOCTYPE svg PUBLIC "-//W3C//DTD SVG 1.1//EN" "http://www.w3.org/Graphics/SVG/1.1/DTD/svg11.dtd">
<svg version="1.1" id="Layer_1" xmlns="http://www.w3.org/2000/svg" xmlns:xlink="http://www.w3.org/1999/xlink" x="0px" y="0px"
	 width="32px" height="32px" viewBox="0 0 32 32" enable-background="new 0 0 32 32" xml:space="preserve">
<path d="M21.527,31.999v-3.802h-7.881V9.936H9.575V0h10.472v9.936h-4.073v3.49h5.485V9.667h10.472v9.936H21.459v-3.76h-5.485V25.87
	h5.553v-3.805H32V32L21.527,31.999L21.527,31.999z M23.876,17.187h5.639v-5.103h-5.639V17.187z M11.992,7.519h5.639V2.417h-5.639
	V7.519z M23.943,29.581h5.639V24.48h-5.639V29.581z"/>
<g>
	<path d="M0.094,15.579h3.662v-3.682h3.089v3.682h3.682v3.089H6.845v3.664H3.756v-3.664H0.094V15.579z"/>
</g>
</svg>
